<mxfile host="app.diagrams.net" agent="Mozilla/5.0 (Windows NT 10.0; Win64; x64; rv:136.0) Gecko/20100101 Firefox/136.0" version="24.9.3">
  <diagram name="Page-1" id="KsiFgUTV8Qb36QcnGGah">
    <mxGraphModel dx="2074" dy="1106" grid="1" gridSize="10" guides="1" tooltips="1" connect="1" arrows="1" fold="1" page="1" pageScale="1" pageWidth="827" pageHeight="1169" math="0" shadow="0">
      <root>
        <mxCell id="0" />
        <mxCell id="1" parent="0" />
        <mxCell id="cIp3T2qddPOityQkZSKC-7" value="x-forwarded-host: proxy.com" style="edgeStyle=orthogonalEdgeStyle;rounded=0;orthogonalLoop=1;jettySize=auto;html=1;exitX=1;exitY=0.25;exitDx=0;exitDy=0;entryX=0.025;entryY=0.049;entryDx=0;entryDy=0;entryPerimeter=0;" edge="1" parent="1" source="cIp3T2qddPOityQkZSKC-1" target="cIp3T2qddPOityQkZSKC-9">
          <mxGeometry relative="1" as="geometry">
            <mxPoint x="480" y="190" as="targetPoint" />
          </mxGeometry>
        </mxCell>
        <mxCell id="cIp3T2qddPOityQkZSKC-1" value="Proxy" style="whiteSpace=wrap;html=1;aspect=fixed;" vertex="1" parent="1">
          <mxGeometry x="40" y="170" width="80" height="80" as="geometry" />
        </mxCell>
        <mxCell id="cIp3T2qddPOityQkZSKC-8" style="edgeStyle=orthogonalEdgeStyle;rounded=0;orthogonalLoop=1;jettySize=auto;html=1;exitX=0.004;exitY=0.165;exitDx=0;exitDy=0;entryX=1;entryY=0.75;entryDx=0;entryDy=0;exitPerimeter=0;" edge="1" parent="1" source="cIp3T2qddPOityQkZSKC-9" target="cIp3T2qddPOityQkZSKC-1">
          <mxGeometry relative="1" as="geometry">
            <mxPoint x="480" y="230" as="sourcePoint" />
          </mxGeometry>
        </mxCell>
        <mxCell id="cIp3T2qddPOityQkZSKC-9" value="IIIF-Presentation" style="rounded=0;whiteSpace=wrap;html=1;fillColor=#d5e8d4;strokeColor=#82b366;" vertex="1" parent="1">
          <mxGeometry x="490" y="170" width="110" height="360" as="geometry" />
        </mxCell>
        <mxCell id="cIp3T2qddPOityQkZSKC-11" value="host: direct.com" style="edgeStyle=orthogonalEdgeStyle;rounded=0;orthogonalLoop=1;jettySize=auto;html=1;entryX=-0.018;entryY=0.618;entryDx=0;entryDy=0;entryPerimeter=0;" edge="1" parent="1" target="cIp3T2qddPOityQkZSKC-9">
          <mxGeometry relative="1" as="geometry">
            <mxPoint x="40" y="390" as="sourcePoint" />
            <mxPoint x="480" y="390" as="targetPoint" />
          </mxGeometry>
        </mxCell>
        <mxCell id="cIp3T2qddPOityQkZSKC-12" value="&lt;div align=&quot;left&quot;&gt;{&lt;/div&gt;&lt;div align=&quot;left&quot;&gt;&amp;nbsp; &quot;publicId&quot;: &quot;https://direct.com/99/path/to/item,&lt;/div&gt;&lt;div align=&quot;left&quot;&gt;&amp;nbsp; &quot;id&quot;: &quot;https://proxy.com/c/manifests/abc1234&quot;&lt;/div&gt;&lt;div align=&quot;left&quot;&gt;}&lt;/div&gt;" style="shape=document;whiteSpace=wrap;html=1;boundedLbl=1;align=left;verticalAlign=top;fontFamily=Courier New;fontSize=11;" vertex="1" parent="1">
          <mxGeometry x="140" y="240" width="340" height="90" as="geometry" />
        </mxCell>
        <mxCell id="cIp3T2qddPOityQkZSKC-14" style="edgeStyle=orthogonalEdgeStyle;rounded=0;orthogonalLoop=1;jettySize=auto;html=1;exitX=-0.018;exitY=0.698;exitDx=0;exitDy=0;exitPerimeter=0;" edge="1" parent="1" source="cIp3T2qddPOityQkZSKC-9">
          <mxGeometry relative="1" as="geometry">
            <mxPoint x="480" y="420" as="sourcePoint" />
            <mxPoint x="40" y="420" as="targetPoint" />
          </mxGeometry>
        </mxCell>
        <mxCell id="cIp3T2qddPOityQkZSKC-15" value="&lt;div align=&quot;left&quot;&gt;{&lt;/div&gt;&lt;div align=&quot;left&quot;&gt;&amp;nbsp; &quot;publicId&quot;: &quot;https://direct.com/99/path/to/item,&lt;/div&gt;&lt;div align=&quot;left&quot;&gt;&amp;nbsp; &quot;id&quot;: &quot;https://direct.com/99/manifests/abc1234&quot;&lt;/div&gt;&lt;div align=&quot;left&quot;&gt;}&lt;/div&gt;" style="shape=document;whiteSpace=wrap;html=1;boundedLbl=1;align=left;verticalAlign=top;fontFamily=Courier New;fontSize=11;" vertex="1" parent="1">
          <mxGeometry x="140" y="440" width="340" height="90" as="geometry" />
        </mxCell>
        <UserObject label="{&#xa;  &quot;proxy.com&quot;: {&#xa;    &quot;ManifestPublic&quot;: &quot;https://direct.com/{customerId}/{hierarchyPath}&quot;,&#xa;    &quot;ManifestPrivate&quot;: &quot;c/manifests/{resourceId}&quot;&#xa;  }&#xa;}" link="{&#xa;  &quot;proxy.com&quot;: {&#xa;    &quot;ManifestPublic&quot;: &quot;https://direct.com/{customerId}/{hierarchyPath}&quot;,&#xa;    &quot;ManifestPrivate&quot;: &quot;c/manifests/{resourceId}&quot;&#xa;  }&#xa;}" id="cIp3T2qddPOityQkZSKC-19">
          <mxCell style="text;whiteSpace=wrap;" vertex="1" parent="1">
            <mxGeometry x="510" y="540" width="400" height="110" as="geometry" />
          </mxCell>
        </UserObject>
        <mxCell id="cIp3T2qddPOityQkZSKC-20" value="Sample config, override for proxy.com" style="text;html=1;align=center;verticalAlign=middle;whiteSpace=wrap;rounded=0;fontColor=#FF0000;" vertex="1" parent="1">
          <mxGeometry x="510" y="530" width="270" height="30" as="geometry" />
        </mxCell>
        <mxCell id="cIp3T2qddPOityQkZSKC-21" value="Return payload for proxy requests uses incoming hostname for private id and alternative hostname for public id" style="text;html=1;align=center;verticalAlign=middle;whiteSpace=wrap;rounded=0;fontColor=#FF0000;" vertex="1" parent="1">
          <mxGeometry x="130" y="140" width="320" height="30" as="geometry" />
        </mxCell>
        <mxCell id="cIp3T2qddPOityQkZSKC-22" value="Return payload for direct requests uses incoming hostname and default paths for public and private id" style="text;html=1;align=center;verticalAlign=middle;whiteSpace=wrap;rounded=0;fontColor=#FF0000;" vertex="1" parent="1">
          <mxGeometry x="160" y="560" width="270" height="30" as="geometry" />
        </mxCell>
      </root>
    </mxGraphModel>
  </diagram>
</mxfile>
